<svg xmlns="http://www.w3.org/2000/svg" viewBox="0 0 512 512" role="img" aria-label="Bloc Noté">
  <defs>
    <linearGradient id="bg" x1="0" x2="1" y1="0" y2="1">
      <stop offset="0" stop-color="#1d2b78"/>
      <stop offset="0.55" stop-color="#111827"/>
      <stop offset="1" stop-color="#0b1022"/>
    </linearGradient>
    <linearGradient id="pen" x1="0" x2="1" y1="0" y2="1">
      <stop offset="0" stop-color="#38bdf8"/>
      <stop offset="0.52" stop-color="#6574ff"/>
      <stop offset="1" stop-color="#ec4899"/>
    </linearGradient>
    <filter id="glow" x="-40%" y="-40%" width="180%" height="180%">
      <feGaussianBlur stdDeviation="12" result="b"/>
      <feColorMatrix in="b" type="matrix" values="0 0 0 0 0.25 0 0 0 0 0.36 0 0 0 0 1 0 0 0 .75 0"/>
      <feMerge><feMergeNode/><feMergeNode in="SourceGraphic"/></feMerge>
    </filter>
  </defs>
  <rect width="512" height="512" rx="116" fill="url(#bg)"/>
  <rect x="38" y="38" width="436" height="436" rx="92" fill="none" stroke="#6574ff" stroke-width="8" opacity=".55"/>
  <g filter="url(#glow)">
    <rect x="142" y="96" width="202" height="286" rx="28" fill="#f8fafc"/>
    <rect x="168" y="130" width="136" height="18" rx="9" fill="#6574ff" opacity=".72"/>
    <rect x="168" y="172" width="126" height="16" rx="8" fill="#c7d2fe"/>
    <rect x="168" y="214" width="108" height="16" rx="8" fill="#c7d2fe"/>
    <rect x="168" y="256" width="122" height="16" rx="8" fill="#c7d2fe"/>
    <path d="M125 129h55M125 178h55M125 227h55M125 276h55M125 325h55" stroke="#6574ff" stroke-width="18" stroke-linecap="round"/>
    <path d="M318 322 226 356l34-92 122-122a42 42 0 0 1 59 59L318 322Z" fill="url(#pen)"/>
    <path d="m226 356 34-92 58 58-92 34Z" fill="#ffe8a3"/>
    <path d="m226 356 35-13-22-22-13 35Z" fill="#111827"/>
  </g>
</svg>
